{"title":"You.Kill.Me.2007.SWESUB.DVDRip.XviD.AC3-Zen_Bud","uid":5759561,"size":1469812914,"categoryP":"video","categoryS":"movies","magnet":"?xt=urn:btih:728cc7075c16995ddaa97e153bc85cb251b70ca6&amp;dn=You.Kill.Me.2007.SWESUB.DVDRip.XviD.AC3-Zen_Bud&amp;tr=udp%3A%2F%2Ftracker.openbittorrent.com%3A80&amp;tr=udp%3A%2F%2Fopen.demonii.com%3A1337&amp;tr=udp%3A%2F%2Ftracker.coppersurfer.tk%3A6969&amp;tr=udp%3A%2F%2Fexodus.desync.com%3A6969","seeders":0,"leechers":0,"uploader":"Zen_Bud","files":-1,"time":1281683308,"description":"General\nComplete name                    : You.Kill.Me.2007.avi\nFormat                           : AVI\nFile size                        : 1.37 GiB\nDuration                         : 1h 32mn\nOverall bit rate                 : 2 116 Kbps\n\nVideo\n\nFormat                           : MPEG-4 Visual\nCodec ID/Hint                    : XviD\nDuration                         : 1h 32mn\nBit rate                         : 1 657 Kbps\nWidth                            : 720 pixels\nHeight                           : 480 pixels\nDisplay aspect ratio             : 2.2:1\nStream size                      : 1.07 GiB (78%)\nWriting library                  : XviD 1.1.2 (UTC 2006-11-01)\n\nAudio\n\nFormat                           : AC-3\nDuration                         : 1h 32mn\nBit rate                         : 448 Kbps\nChannel(s)                       : 6 channels\nChannel positions                : Front: L C R, Side: L R, LFE\nSampling rate                    : 48.0 KHz\nStream size                      : 297 MiB (21%)\n\n\n","torrent":{"xt":"urn:btih:728cc7075c16995ddaa97e153bc85cb251b70ca6","amp;dn":"You.Kill.Me.2007.SWESUB.DVDRip.XviD.AC3-Zen_Bud","amp;tr":["udp%3A%2F%2Ftracker.openbittorrent.com%3A80","udp%3A%2F%2Fopen.demonii.com%3A1337","udp%3A%2F%2Ftracker.coppersurfer.tk%3A6969","udp%3A%2F%2Fexodus.desync.com%3A6969"],"infoHash":"728cc7075c16995ddaa97e153bc85cb251b70ca6","infoHashBuffer":{"type":"Buffer","data":[114,140,199,7,92,22,153,93,218,169,126,21,59,200,92,178,81,183,12,166]},"announce":[],"urlList":[]}}